<svg width="77" height="178" viewBox="0 0 77 178" fill="none" xmlns="http://www.w3.org/2000/svg">
<path d="M30.4078 75.4968C21.1701 73.5833 12.9692 68.3145 7.389 60.7081C1.80877 53.1017 -0.754878 43.6973 0.193206 34.3113C1.14129 24.9253 5.53384 16.2235 12.5225 9.88668C19.5111 3.54985 28.6 0.0275349 38.0338 1.92773e-05C47.4896 -0.0094838 56.6116 3.49484 63.6289 9.8327C70.6463 16.1706 75.0584 24.8898 76.0087 34.2977C76.959 43.7056 74.3797 53.1311 68.7715 60.7442C63.1633 68.3574 54.9264 73.6152 45.6597 75.4968V144.893C45.6597 146.915 44.8563 148.855 43.4261 150.285C41.996 151.715 40.0563 152.519 38.0338 152.519C36.0112 152.519 34.0715 151.715 32.6414 150.285C31.2113 148.855 30.4078 146.915 30.4078 144.893V75.4968Z" fill="#337E92"/>
<path d="M45.6733 170.374V100.978H30.4214V170.374C30.4214 172.397 31.2248 174.336 32.655 175.766C34.0851 177.197 36.0248 178 38.0473 178C40.0698 178 42.0095 177.197 43.4397 175.766C44.8698 174.336 45.6733 172.397 45.6733 170.374Z" fill="#337E92"/>
</svg>
