<svg width="31" height="31" viewBox="0 0 31 31" fill="none" xmlns="http://www.w3.org/2000/svg">
<g clip-path="url(#clip0)">
<path d="M13.7466 12.7783C12.1942 12.4568 10.816 11.5713 9.87822 10.293C8.94044 9.01475 8.50961 7.43431 8.66894 5.85695C8.82827 4.2796 9.56646 2.81724 10.7409 1.75231C11.9154 0.687386 13.4428 0.0954476 15.0282 0.0908236C16.6173 0.0892265 18.1502 0.67814 19.3295 1.74324C20.5088 2.80834 21.2503 4.27364 21.41 5.85467C21.5697 7.43571 21.1362 9.01968 20.1938 10.2991C19.2513 11.5785 17.867 12.4621 16.3097 12.7783V24.4406C16.3097 24.7805 16.1747 25.1064 15.9344 25.3468C15.694 25.5871 15.3681 25.7221 15.0282 25.7221C14.6883 25.7221 14.3623 25.5871 14.122 25.3468C13.8816 25.1064 13.7466 24.7805 13.7466 24.4406V12.7783Z" fill="white"/>
<path d="M16.3117 28.7228V17.0605H13.7486V28.7228C13.7486 29.0627 13.8836 29.3887 14.124 29.629C14.3643 29.8693 14.6903 30.0044 15.0302 30.0044C15.3701 30.0044 15.696 29.8693 15.9364 29.629C16.1767 29.3887 16.3117 29.0627 16.3117 28.7228Z" fill="white"/>
</g>
<defs>
<clipPath id="clip0">
<rect width="30.7576" height="30.7576" fill="white" transform="translate(0.151672 0.0908203)"/>
</clipPath>
</defs>
</svg>
